<?xml version="1.0" encoding="utf-8"?>
<!-- Generator: Adobe Illustrator 23.0.2, SVG Export Plug-In . SVG Version: 6.00 Build 0)  -->
<svg version="1.1" id="Layer_1" xmlns="http://www.w3.org/2000/svg" xmlns:xlink="http://www.w3.org/1999/xlink" x="0px" y="0px"
	 viewBox="0 0 40 40" style="enable-background:new 0 0 40 40;" xml:space="preserve">
<style type="text/css">
	.st0{fill:#C6C5C4;}
	.st1{fill:#B12F2B;}
	.st2{fill:none;}
	.st3{fill:#C1C1C1;}
	.st4{fill:#A61E22;}
	.st5{fill:#C2C2C2;}
	.st6{fill:#A81812;}
	.st7{fill:#C79571;}
	.st8{fill:#A7C976;}
	.st9{fill:#FFFFFF;}
	.st10{fill:#EEE3D6;}
	.st11{fill:#CBCBCB;}
	.st12{fill:none;stroke:#000000;stroke-width:0.5;stroke-miterlimit:10;}
	.st13{clip-path:url(#SVGID_2_);fill:#C1C1C1;}
	.st14{clip-path:url(#SVGID_2_);fill:#A81812;}
	.st15{fill:#71D45B;}
	.st16{fill:#D1D1D1;}
</style>
<path class="st15" d="M20.1,2.3c-10.1,0-18.3,8.2-18.3,18.3c0,10.1,8.2,18.3,18.3,18.3c10.1,0,18.3-8.2,18.3-18.3
	C38.4,10.5,30.2,2.3,20.1,2.3z M20.1,37.4c-9.3,0-16.8-7.5-16.8-16.8c0-9.3,7.5-16.8,16.8-16.8c9.3,0,16.8,7.5,16.8,16.8
	C36.9,29.8,29.4,37.4,20.1,37.4z"/>
<path class="st15" d="M29.6,13.3l-13,13l-5.9-5.9c-0.3-0.3-0.8-0.3-1.1,0c-0.3,0.3-0.3,0.8,0,1.1l6.4,6.4c0.1,0.1,0.3,0.2,0.5,0.2
	c0.2,0,0.4-0.1,0.5-0.2l13.5-13.5c0.3-0.3,0.3-0.8,0-1.1S29.9,13,29.6,13.3z"/>
</svg>
