<?xml version="1.0" encoding="utf-8"?>
<!-- Generator: Adobe Illustrator 23.0.2, SVG Export Plug-In . SVG Version: 6.00 Build 0)  -->
<svg version="1.1" id="Layer_1" xmlns="http://www.w3.org/2000/svg" xmlns:xlink="http://www.w3.org/1999/xlink" x="0px" y="0px"
	 viewBox="0 0 595.3 154.64" style="enable-background:new 0 0 595.3 154.64;" xml:space="preserve">
<style type="text/css">
	.Drop_x0020_Shadow{fill:none;}
	.Round_x0020_Corners_x0020_2_x0020_pt{fill:#FFFFFF;stroke:#000000;stroke-miterlimit:10;}
	.Live_x0020_Reflect_x0020_X{fill:none;}
	.Bevel_x0020_Soft{fill:url(#SVGID_1_);}
	.Dusk{fill:#FFFFFF;}
	.Foliage_GS{fill:#FFDD00;}
	.Pompadour_GS{fill-rule:evenodd;clip-rule:evenodd;fill:#44ADE2;}
	.st0{fill:#547CBF;}
	.st1{fill:#E94435;}
	.st2{fill:#FFFFFF;}
</style>
<linearGradient id="SVGID_1_" gradientUnits="userSpaceOnUse" x1="-615.296" y1="-180.766" x2="-614.5889" y2="-180.0589">
	<stop  offset="0" style="stop-color:#DEDFE3"/>
	<stop  offset="0.1738" style="stop-color:#D8D9DD"/>
	<stop  offset="0.352" style="stop-color:#C9CACD"/>
	<stop  offset="0.5323" style="stop-color:#B4B5B8"/>
	<stop  offset="0.7139" style="stop-color:#989A9C"/>
	<stop  offset="0.8949" style="stop-color:#797C7E"/>
	<stop  offset="1" style="stop-color:#656B6C"/>
</linearGradient>
<rect x="0.58" y="-0.96" class="st1" width="594.89" height="155.57"/>
<g>
	<g>
		<path class="st2" d="M62.28,60.86h4.21v23.79h12.52v3.51H62.28V60.86z"/>
		<path class="st2" d="M82.09,79.39c0-6.01,3.86-9.13,8.39-9.13c4.52,0,8.42,3.12,8.42,9.13c0,6.01-3.9,9.13-8.42,9.13
			C85.95,88.52,82.09,85.4,82.09,79.39z M90.48,85.48c2.96,0,4.45-2.5,4.45-6.08c0-3.59-1.48-6.12-4.45-6.12
			c-2.89,0-4.41,2.54-4.41,6.12C86.07,82.98,87.59,85.48,90.48,85.48z"/>
		<path class="st2" d="M104.12,88.2c-1.68-0.74-2.46-1.95-2.46-3.47c0-1.64,1.13-3,2.61-3.71c-1.13-0.94-1.91-2.34-1.91-4.49
			c0-5.34,5.07-6.24,7.53-6.24c0.97,0,2.69,0.2,4.21,0.94c0.82-1.52,2.73-3.24,5.42-3.16v3c-1.79-0.2-2.96,0.43-3.71,1.36
			c0.94,0.94,1.6,2.22,1.6,4.1c0,5.34-5.38,6.2-7.53,6.2c-0.94,0-2.18-0.12-3.43-0.55c-0.82,0.35-1.52,1.05-1.52,1.87
			c0,1.21,1.4,1.83,5.46,1.83c6.71,0,8.97,1.83,8.97,5.62c0,3.9-4.37,6.4-10.3,6.4c-5.11,0-8.27-1.91-8.27-5.27
			C100.81,90.58,102.29,89.14,104.12,88.2z M107.75,89.06c-1.56,0.39-3.28,1.44-3.28,3c0,2.18,2.11,3.08,4.84,3.08
			c3.47,0,6.32-0.97,6.32-3.28c0-2.03-1.48-2.69-5.5-2.69C109.27,89.18,108.49,89.14,107.75,89.06z M106.08,76.54
			c0,2.11,1.01,3.78,3.82,3.78c2.5,0,3.82-1.72,3.82-3.78s-1.33-3.82-3.82-3.82C107.13,72.72,106.04,74.44,106.08,76.54z"/>
		<path class="st2" d="M135.68,60.4c1.37,0,2.54,1.17,2.54,2.57c0,1.33-1.17,2.46-2.54,2.46c-1.4,0-2.5-1.13-2.5-2.46
			C133.18,61.57,134.27,60.4,135.68,60.4z M133.8,70.61h3.86v17.55h-3.86V70.61z"/>
		<path class="st2" d="M143.01,88.17V70.61h3.47l0.19,2.85h0.12c0.94-1.64,2.73-3.24,5.34-3.24c4.76,0,6.83,2.81,6.83,8.78v9.17
			h-3.86v-8.54c0-3.67-0.82-6.08-3.98-6.08c-2.3,0-3.74,2.22-4.25,4.95v9.67H143.01z"/>
		<path class="st2" d="M176.04,70.61l4.09,13.65h0.12l3.28-13.34h3.82l3.31,13.34h0.12l4.21-13.65h3.71l-5.69,17.55h-4.8
			l-2.89-12.09h-0.12l-3,12.09h-4.6l-5.81-17.55H176.04z"/>
		<path class="st2" d="M203.89,60.4c1.36,0,2.54,1.17,2.54,2.57c0,1.33-1.17,2.46-2.54,2.46c-1.4,0-2.5-1.13-2.5-2.46
			C201.39,61.57,202.48,60.4,203.89,60.4z M202.01,70.61h3.86v17.55h-3.86V70.61z"/>
		<path class="st2" d="M210.24,71.16l2.42-0.55l0.97-5.11h2.69v5.11h4.68v2.81h-4.68v8.62c0,3.12,1.21,3.78,2.5,3.78
			c0.86,0,1.64-0.31,2.03-0.62v2.15c-0.51,0.51-2.34,1.01-3.43,1.01c-2.81,0-4.95-1.4-4.95-5.73v-9.2h-2.22V71.16z"/>
		<path class="st2" d="M224.75,58.91h3.86v14.39h0.12c0.94-1.52,2.65-3.08,5.15-3.08c4.76,0,6.83,2.81,6.83,8.78v9.17h-3.86v-8.54
			c0-3.67-0.82-6.08-3.98-6.08c-2.3,0-3.74,2.22-4.25,4.95v9.67h-3.86V58.91z"/>
		<path class="st2" d="M255.4,74.13c0.04-8.54,5.66-13.46,13.5-13.46c2.92,0,6.08,0.7,8.54,1.83l-1.37,3.2
			c-1.87-0.9-4.49-1.56-6.94-1.56c-5.58,0-9.24,3.63-9.24,9.98c-0.04,6.98,3.51,10.96,8.81,10.96c1.72,0,3.51-0.43,5.15-1.21v-6.59
			h-5.66V74.2h9.24v11.9c-2.57,1.48-5.81,2.46-8.74,2.46C260.75,88.56,255.36,83.17,255.4,74.13z"/>
		<path class="st2" d="M280.99,79.39c0-6.01,3.86-9.13,8.39-9.13c4.52,0,8.42,3.12,8.42,9.13c0,6.01-3.9,9.13-8.42,9.13
			C284.85,88.52,280.99,85.4,280.99,79.39z M289.37,85.48c2.96,0,4.45-2.5,4.45-6.08c0-3.59-1.48-6.12-4.45-6.12
			c-2.89,0-4.41,2.54-4.41,6.12C284.96,82.98,286.49,85.48,289.37,85.48z"/>
		<path class="st2" d="M301.15,79.39c0-6.01,3.86-9.13,8.38-9.13s8.42,3.12,8.42,9.13c0,6.01-3.9,9.13-8.42,9.13
			S301.15,85.4,301.15,79.39z M309.53,85.48c2.96,0,4.45-2.5,4.45-6.08c0-3.59-1.48-6.12-4.45-6.12c-2.89,0-4.41,2.54-4.41,6.12
			C305.13,82.98,306.65,85.48,309.53,85.48z"/>
		<path class="st2" d="M323.18,88.2c-1.68-0.74-2.46-1.95-2.46-3.47c0-1.64,1.13-3,2.61-3.71c-1.13-0.94-1.91-2.34-1.91-4.49
			c0-5.34,5.07-6.24,7.53-6.24c0.98,0,2.69,0.2,4.21,0.94c0.82-1.52,2.73-3.24,5.42-3.16v3c-1.79-0.2-2.96,0.43-3.71,1.36
			c0.94,0.94,1.6,2.22,1.6,4.1c0,5.34-5.38,6.2-7.53,6.2c-0.94,0-2.18-0.12-3.43-0.55c-0.82,0.35-1.52,1.05-1.52,1.87
			c0,1.21,1.4,1.83,5.46,1.83c6.71,0,8.97,1.83,8.97,5.62c0,3.9-4.37,6.4-10.3,6.4c-5.11,0-8.27-1.91-8.27-5.27
			C319.87,90.58,321.35,89.14,323.18,88.2z M326.81,89.06c-1.56,0.39-3.28,1.44-3.28,3c0,2.18,2.11,3.08,4.84,3.08
			c3.47,0,6.32-0.97,6.32-3.28c0-2.03-1.48-2.69-5.5-2.69C328.33,89.18,327.55,89.14,326.81,89.06z M325.13,76.54
			c0,2.11,1.01,3.78,3.82,3.78c2.5,0,3.82-1.72,3.82-3.78s-1.33-3.82-3.82-3.82C326.19,72.72,325.1,74.44,325.13,76.54z"/>
		<path class="st2" d="M342.02,58.91h3.86v29.25h-3.86V58.91z"/>
		<path class="st2" d="M358.83,70.3c4.72,0,7.61,3.78,7.21,9.48h-11.93c0.12,3.55,2.22,5.77,5.34,5.77c1.87,0,3.94-0.55,4.8-1.09
			l0.9,2.42c-1.29,0.86-3.35,1.6-6.2,1.6c-4.45,0-8.54-3.2-8.54-9.09C350.41,73.38,354.31,70.3,358.83,70.3z M362.77,77.36
			c-0.08-2.5-1.64-4.21-4.02-4.25c-2.61,0-4.21,1.91-4.49,4.25H362.77z"/>
	</g>
	<g id="XMLID_1442_">
		<g id="XMLID_1443_">
			<g id="XMLID_1445_">
				<path class="st2" d="M497.96,74.54h-32.53l0.04,9.32h21.93c-2.59,11.34-10.6,18.3-21.34,18.3c-14.09,0-25.52-11.43-25.52-25.52
					s11.42-25.52,25.52-25.52c6.7,0,12.8,2.59,17.35,6.81l7.2-6.2c-6.31-6.22-14.98-10.07-24.55-10.07
					c-19.32,0-34.98,15.66-34.98,34.98c0,19.32,15.66,34.98,34.98,34.98c18.55,0,31.96-14.15,31.96-33.47L497.96,74.54z"/>
			</g>
			<g id="XMLID_1444_">
				<polygon class="st2" points="544.71,74.93 531.29,74.93 531.29,61.5 522.72,61.5 522.72,74.93 509.29,74.93 509.29,83.49 
					522.72,83.49 522.72,96.92 531.29,96.92 531.29,83.49 544.71,83.49 				"/>
			</g>
		</g>
	</g>
</g>
</svg>
