<?xml version="1.0" encoding="utf-8"?>
<!-- Generator: Adobe Illustrator 23.0.2, SVG Export Plug-In . SVG Version: 6.00 Build 0)  -->
<svg version="1.1" id="Layer_1" xmlns="http://www.w3.org/2000/svg" xmlns:xlink="http://www.w3.org/1999/xlink" x="0px" y="0px"
	 viewBox="0 0 40 40" style="enable-background:new 0 0 40 40;" xml:space="preserve">
<style type="text/css">
	.st0{fill:#B52025;}
	.st1{fill:#010101;}
</style>
<g>
	<g>
		<path class="st0" d="M34.1,1.8H5.5c-2.4,0-4.4,2-4.4,4.4v28.7c0,2.4,2,4.4,4.4,4.4h28.7c2.4,0,4.4-2,4.4-4.4V6.2
			C38.5,3.7,36.6,1.8,34.1,1.8z M35.6,34.8c0,0.8-0.7,1.5-1.5,1.5h-8.3V24.4h4.5l0.7-4.5h-5.3v-3.1c0-1.2,1-2.2,2.2-2.2h3V10h-3
			c-3.7,0-6.7,3-6.7,6.7v3.1h-4.4v4.5h4.4v11.9H5.5c-0.8,0-1.5-0.7-1.5-1.5V6.2c0-0.8,0.7-1.5,1.5-1.5h28.7c0.8,0,1.5,0.7,1.5,1.5
			V34.8z"/>
	</g>
</g>
</svg>
