<?xml version="1.0" encoding="utf-8"?>
<!-- Generator: Adobe Illustrator 23.0.2, SVG Export Plug-In . SVG Version: 6.00 Build 0)  -->
<svg version="1.1" id="Layer_1" xmlns="http://www.w3.org/2000/svg" xmlns:xlink="http://www.w3.org/1999/xlink" x="0px" y="0px"
	 viewBox="0 0 595.3 154.64" style="enable-background:new 0 0 595.3 154.64;" xml:space="preserve">
<style type="text/css">
	.Drop_x0020_Shadow{fill:none;}
	.Round_x0020_Corners_x0020_2_x0020_pt{fill:#FFFFFF;stroke:#000000;stroke-miterlimit:10;}
	.Live_x0020_Reflect_x0020_X{fill:none;}
	.Bevel_x0020_Soft{fill:url(#SVGID_1_);}
	.Dusk{fill:#FFFFFF;}
	.Foliage_GS{fill:#FFDD00;}
	.Pompadour_GS{fill-rule:evenodd;clip-rule:evenodd;fill:#44ADE2;}
	.st0{fill:#547CBF;}
	.st1{fill:#E94435;}
	.st2{fill:#FFFFFF;}
</style>
<linearGradient id="SVGID_1_" gradientUnits="userSpaceOnUse" x1="-615.296" y1="0" x2="-614.5889" y2="0.7071">
	<stop  offset="0" style="stop-color:#DEDFE3"/>
	<stop  offset="0.1738" style="stop-color:#D8D9DD"/>
	<stop  offset="0.352" style="stop-color:#C9CACD"/>
	<stop  offset="0.5323" style="stop-color:#B4B5B8"/>
	<stop  offset="0.7139" style="stop-color:#989A9C"/>
	<stop  offset="0.8949" style="stop-color:#797C7E"/>
	<stop  offset="1" style="stop-color:#656B6C"/>
</linearGradient>
<rect x="0.58" y="-0.96" class="st1" width="594.89" height="155.57"/>
<g>
	<g>
		<path class="st2" d="M60.52,85.79l1.83-3.2c2.57,1.56,5.07,2.38,7.72,2.38c3.59,0,5.97-1.95,5.97-4.21c0-2.22-1.87-3.55-6.4-4.56
			c-4.99-1.17-8-3.28-8-7.96c0-4.72,4.06-7.57,9.17-7.57c3.71,0,6.79,1.09,8.89,2.34l-1.83,3.16c-1.83-1.05-4.33-2.11-6.86-2.11
			c-3.51,0-5.11,2.07-5.11,4.06c0,2.42,1.95,3.47,5.62,4.37c5.69,1.4,8.74,3.32,8.74,8.03c-0.04,5.5-4.99,7.92-10.06,7.92
			C67.11,88.44,63.1,87.42,60.52,85.79z"/>
		<path class="st2" d="M86.85,60.4c1.37,0,2.54,1.17,2.54,2.57c0,1.33-1.17,2.46-2.54,2.46c-1.4,0-2.5-1.13-2.5-2.46
			C84.35,61.57,85.44,60.4,86.85,60.4z M84.98,70.62h3.86v17.55h-3.86V70.62z"/>
		<path class="st2" d="M96.17,88.21c-1.68-0.74-2.46-1.95-2.46-3.47c0-1.64,1.13-3,2.61-3.71c-1.13-0.94-1.91-2.34-1.91-4.49
			c0-5.34,5.07-6.24,7.53-6.24c0.98,0,2.69,0.2,4.21,0.94c0.82-1.52,2.73-3.24,5.42-3.16v3c-1.79-0.2-2.96,0.43-3.71,1.36
			c0.94,0.94,1.6,2.22,1.6,4.1c0,5.34-5.38,6.2-7.53,6.2c-0.94,0-2.18-0.12-3.43-0.55c-0.82,0.35-1.52,1.05-1.52,1.87
			c0,1.21,1.4,1.83,5.46,1.83c6.71,0,8.97,1.83,8.97,5.62c0,3.9-4.37,6.4-10.3,6.4c-5.11,0-8.27-1.91-8.27-5.27
			C92.85,90.58,94.34,89.14,96.17,88.21z M99.8,89.06c-1.56,0.39-3.28,1.44-3.28,3c0,2.18,2.11,3.08,4.84,3.08
			c3.47,0,6.32-0.98,6.32-3.28c0-2.03-1.48-2.69-5.5-2.69C101.32,89.18,100.54,89.14,99.8,89.06z M98.12,76.54
			c0,2.11,1.01,3.78,3.82,3.78c2.5,0,3.82-1.72,3.82-3.78c0-2.07-1.33-3.82-3.82-3.82C99.17,72.72,98.08,74.44,98.12,76.54z"/>
		<path class="st2" d="M115,88.17V70.62h3.47l0.19,2.85h0.12c0.94-1.64,2.73-3.24,5.34-3.24c4.76,0,6.83,2.81,6.83,8.78v9.17h-3.86
			v-8.54c0-3.67-0.82-6.08-3.98-6.08c-2.3,0-3.74,2.22-4.25,4.95v9.67H115z"/>
		<path class="st2" d="M145.46,79.04v-8.42h3.86v8.42c0,3.78,0.82,6.2,3.98,6.2c2.3,0,3.74-2.18,4.25-4.99v-9.63h3.86v17.55h-3.47
			l-0.19-2.85h-0.12c-0.94,1.6-2.77,3.24-5.34,3.24C147.53,88.56,145.46,85.48,145.46,79.04z"/>
		<path class="st2" d="M166.33,97.92v-27.3h3.35l0.16,2.3h0.12c1.17-1.68,3-2.61,5.34-2.61c4.37,0,7.84,3.16,7.84,9.09
			s-3.67,9.09-7.76,9.09c-2.18,0-3.9-0.9-5.07-2.57h-0.12v12.01H166.33z M170.19,79.51c0,3.24,1.79,6.08,4.37,6.08
			c2.85,0,4.56-2.81,4.56-6.2s-1.6-6.12-4.56-6.12C171.83,73.31,170.19,75.84,170.19,79.51z"/>
		<path class="st2" d="M199.83,70.62l4.1,13.65h0.12l3.28-13.34h3.82l3.32,13.34h0.12l4.21-13.65h3.71l-5.69,17.55H212l-2.89-12.09
			h-0.12l-3,12.09h-4.6l-5.81-17.55H199.83z"/>
		<path class="st2" d="M227.67,60.4c1.36,0,2.54,1.17,2.54,2.57c0,1.33-1.17,2.46-2.54,2.46c-1.4,0-2.5-1.13-2.5-2.46
			C225.18,61.57,226.27,60.4,227.67,60.4z M225.8,70.62h3.86v17.55h-3.86V70.62z"/>
		<path class="st2" d="M234.03,71.16l2.42-0.55l0.97-5.11h2.69v5.11h4.68v2.81h-4.68v8.62c0,3.12,1.21,3.78,2.5,3.78
			c0.86,0,1.64-0.31,2.03-0.62v2.15c-0.51,0.51-2.34,1.01-3.43,1.01c-2.81,0-4.95-1.4-4.95-5.73v-9.2h-2.22V71.16z"/>
		<path class="st2" d="M248.54,58.92h3.86v14.39h0.12c0.94-1.52,2.65-3.08,5.15-3.08c4.76,0,6.83,2.81,6.83,8.78v9.17h-3.86v-8.54
			c0-3.67-0.82-6.08-3.98-6.08c-2.3,0-3.74,2.22-4.25,4.95v9.67h-3.86V58.92z"/>
		<path class="st2" d="M279.19,74.13c0.04-8.54,5.66-13.46,13.5-13.46c2.92,0,6.08,0.7,8.54,1.83l-1.37,3.2
			c-1.87-0.9-4.49-1.56-6.94-1.56c-5.58,0-9.24,3.63-9.24,9.98c-0.04,6.98,3.51,10.96,8.81,10.96c1.72,0,3.51-0.43,5.15-1.21v-6.59
			h-5.66V74.2h9.24v11.9c-2.57,1.48-5.81,2.46-8.74,2.46C284.54,88.56,279.15,83.17,279.19,74.13z"/>
		<path class="st2" d="M304.78,79.39c0-6.01,3.86-9.13,8.38-9.13s8.42,3.12,8.42,9.13s-3.9,9.13-8.42,9.13S304.78,85.4,304.78,79.39
			z M313.16,85.48c2.96,0,4.45-2.5,4.45-6.08c0-3.59-1.48-6.12-4.45-6.12c-2.89,0-4.41,2.54-4.41,6.12
			C308.75,82.98,310.27,85.48,313.16,85.48z"/>
		<path class="st2" d="M324.94,79.39c0-6.01,3.86-9.13,8.38-9.13s8.42,3.12,8.42,9.13s-3.9,9.13-8.42,9.13S324.94,85.4,324.94,79.39
			z M333.32,85.48c2.96,0,4.45-2.5,4.45-6.08c0-3.59-1.48-6.12-4.45-6.12c-2.89,0-4.41,2.54-4.41,6.12
			C328.92,82.98,330.44,85.48,333.32,85.48z"/>
		<path class="st2" d="M346.97,88.21c-1.68-0.74-2.46-1.95-2.46-3.47c0-1.64,1.13-3,2.61-3.71c-1.13-0.94-1.91-2.34-1.91-4.49
			c0-5.34,5.07-6.24,7.53-6.24c0.98,0,2.69,0.2,4.21,0.94c0.82-1.52,2.73-3.24,5.42-3.16v3c-1.79-0.2-2.96,0.43-3.71,1.36
			c0.94,0.94,1.6,2.22,1.6,4.1c0,5.34-5.38,6.2-7.53,6.2c-0.94,0-2.18-0.12-3.43-0.55c-0.82,0.35-1.52,1.05-1.52,1.87
			c0,1.21,1.4,1.83,5.46,1.83c6.71,0,8.97,1.83,8.97,5.62c0,3.9-4.37,6.4-10.3,6.4c-5.11,0-8.27-1.91-8.27-5.27
			C343.66,90.58,345.14,89.14,346.97,88.21z M350.6,89.06c-1.56,0.39-3.28,1.44-3.28,3c0,2.18,2.11,3.08,4.84,3.08
			c3.47,0,6.32-0.98,6.32-3.28c0-2.03-1.48-2.69-5.5-2.69C352.12,89.18,351.34,89.14,350.6,89.06z M348.92,76.54
			c0,2.11,1.01,3.78,3.82,3.78c2.5,0,3.82-1.72,3.82-3.78c0-2.07-1.33-3.82-3.82-3.82C349.98,72.72,348.88,74.44,348.92,76.54z"/>
		<path class="st2" d="M365.81,58.92h3.86v29.25h-3.86V58.92z"/>
		<path class="st2" d="M382.62,70.3c4.72,0,7.61,3.78,7.21,9.48H377.9c0.12,3.55,2.22,5.77,5.34,5.77c1.87,0,3.94-0.55,4.8-1.09
			l0.9,2.42c-1.29,0.86-3.35,1.6-6.2,1.6c-4.45,0-8.54-3.2-8.54-9.09C374.19,73.38,378.09,70.3,382.62,70.3z M386.56,77.36
			c-0.08-2.5-1.64-4.21-4.02-4.25c-2.61,0-4.21,1.91-4.49,4.25H386.56z"/>
	</g>
	<g id="XMLID_2_">
		<g id="XMLID_3_">
			<g id="XMLID_5_">
				<path class="st2" d="M497.96,74.54h-32.53l0.04,9.32h21.93c-2.59,11.34-10.6,18.3-21.34,18.3c-14.09,0-25.52-11.43-25.52-25.52
					s11.42-25.52,25.52-25.52c6.7,0,12.8,2.59,17.35,6.81l7.2-6.2c-6.31-6.22-14.98-10.07-24.55-10.07
					c-19.32,0-34.98,15.66-34.98,34.98c0,19.32,15.66,34.98,34.98,34.98c18.55,0,31.96-14.15,31.96-33.47L497.96,74.54z"/>
			</g>
			<g id="XMLID_4_">
				<polygon class="st2" points="544.71,74.93 531.29,74.93 531.29,61.5 522.72,61.5 522.72,74.93 509.29,74.93 509.29,83.49 
					522.72,83.49 522.72,96.92 531.29,96.92 531.29,83.49 544.71,83.49 				"/>
			</g>
		</g>
	</g>
</g>
</svg>
