<?xml version="1.0" encoding="utf-8"?>
<!-- Generator: Adobe Illustrator 23.0.2, SVG Export Plug-In . SVG Version: 6.00 Build 0)  -->
<svg version="1.1" id="Layer_1" xmlns="http://www.w3.org/2000/svg" xmlns:xlink="http://www.w3.org/1999/xlink" x="0px" y="0px"
	 viewBox="0 0 595.3 154.72" style="enable-background:new 0 0 595.3 154.72;" xml:space="preserve">
<style type="text/css">
	.Drop_x0020_Shadow{fill:none;}
	.Round_x0020_Corners_x0020_2_x0020_pt{fill:#FFFFFF;stroke:#000000;stroke-miterlimit:10;}
	.Live_x0020_Reflect_x0020_X{fill:none;}
	.Bevel_x0020_Soft{fill:url(#SVGID_1_);}
	.Dusk{fill:#FFFFFF;}
	.Foliage_GS{fill:#FFDD00;}
	.Pompadour_GS{fill-rule:evenodd;clip-rule:evenodd;fill:#44ADE2;}
	.st0{fill:#547CBF;}
	.st1{fill:#E94435;}
	.st2{fill:#FFFFFF;}
</style>
<linearGradient id="SVGID_1_" gradientUnits="userSpaceOnUse" x1="0" y1="-1.0213" x2="0.7071" y2="-0.3142">
	<stop  offset="0" style="stop-color:#DEDFE3"/>
	<stop  offset="0.1738" style="stop-color:#D8D9DD"/>
	<stop  offset="0.352" style="stop-color:#C9CACD"/>
	<stop  offset="0.5323" style="stop-color:#B4B5B8"/>
	<stop  offset="0.7139" style="stop-color:#989A9C"/>
	<stop  offset="0.8949" style="stop-color:#797C7E"/>
	<stop  offset="1" style="stop-color:#656B6C"/>
</linearGradient>
<rect x="-0.02" y="-0.01" class="st0" width="595.34" height="154.74"/>
<g>
	<g>
		<path class="st2" d="M56.2,86.51l1.83-3.2c2.57,1.56,5.07,2.38,7.72,2.38c3.59,0,5.97-1.95,5.97-4.21c0-2.22-1.87-3.55-6.4-4.56
			c-4.99-1.17-8-3.28-8-7.96c0-4.72,4.06-7.57,9.17-7.57c3.71,0,6.79,1.09,8.89,2.34l-1.83,3.16c-1.83-1.05-4.33-2.11-6.86-2.11
			c-3.51,0-5.11,2.07-5.11,4.06c0,2.42,1.95,3.47,5.62,4.37c5.69,1.4,8.74,3.32,8.74,8.03c-0.04,5.5-4.99,7.92-10.06,7.92
			C62.79,89.16,58.77,88.14,56.2,86.51z"/>
		<path class="st2" d="M82.52,61.12c1.36,0,2.53,1.17,2.53,2.57c0,1.33-1.17,2.46-2.53,2.46c-1.4,0-2.5-1.13-2.5-2.46
			C80.03,62.29,81.12,61.12,82.52,61.12z M80.65,71.34h3.86v17.55h-3.86V71.34z"/>
		<path class="st2" d="M91.84,88.93c-1.68-0.74-2.46-1.95-2.46-3.47c0-1.64,1.13-3,2.61-3.71c-1.13-0.94-1.91-2.34-1.91-4.49
			c0-5.34,5.07-6.24,7.53-6.24c0.98,0,2.69,0.2,4.21,0.94c0.82-1.52,2.73-3.24,5.42-3.16v3c-1.79-0.2-2.96,0.43-3.71,1.36
			c0.94,0.94,1.6,2.22,1.6,4.1c0,5.34-5.38,6.2-7.53,6.2c-0.94,0-2.18-0.12-3.43-0.55c-0.82,0.35-1.52,1.05-1.52,1.87
			c0,1.21,1.4,1.83,5.46,1.83c6.71,0,8.97,1.83,8.97,5.62c0,3.9-4.37,6.4-10.3,6.4c-5.11,0-8.27-1.91-8.27-5.27
			C88.53,91.3,90.01,89.86,91.84,88.93z M95.47,89.78c-1.56,0.39-3.28,1.44-3.28,3c0,2.18,2.11,3.08,4.84,3.08
			c3.47,0,6.32-0.98,6.32-3.28c0-2.03-1.48-2.69-5.5-2.69C96.99,89.9,96.21,89.86,95.47,89.78z M93.79,77.26
			c0,2.11,1.01,3.78,3.82,3.78c2.5,0,3.82-1.72,3.82-3.78c0-2.07-1.33-3.82-3.82-3.82C94.85,73.44,93.75,75.16,93.79,77.26z"/>
		<path class="st2" d="M110.68,88.89V71.34h3.47l0.19,2.85h0.12c0.94-1.64,2.73-3.24,5.34-3.24c4.76,0,6.83,2.81,6.83,8.78v9.17
			h-3.86v-8.54c0-3.67-0.82-6.08-3.98-6.08c-2.3,0-3.74,2.22-4.25,4.95v9.67H110.68z"/>
		<path class="st2" d="M141.14,79.76v-8.42H145v8.42c0,3.78,0.82,6.2,3.98,6.2c2.3,0,3.74-2.18,4.25-4.99v-9.63h3.86v17.55h-3.47
			l-0.19-2.85h-0.12c-0.94,1.6-2.77,3.24-5.34,3.24C143.2,89.28,141.14,86.2,141.14,79.76z"/>
		<path class="st2" d="M162,98.64v-27.3h3.35l0.16,2.3h0.12c1.17-1.68,3-2.61,5.34-2.61c4.37,0,7.84,3.16,7.84,9.09
			s-3.67,9.09-7.76,9.09c-2.18,0-3.9-0.9-5.07-2.57h-0.12v12.01H162z M165.86,80.23c0,3.24,1.79,6.08,4.37,6.08
			c2.85,0,4.56-2.81,4.56-6.2s-1.6-6.12-4.56-6.12C167.5,74.03,165.86,76.56,165.86,80.23z"/>
		<path class="st2" d="M195.5,71.34l4.1,13.65h0.12l3.28-13.34h3.82l3.31,13.34h0.12l4.21-13.65h3.71l-5.69,17.55h-4.8l-2.89-12.09
			h-0.12l-3,12.09h-4.6l-5.81-17.55H195.5z"/>
		<path class="st2" d="M223.35,61.12c1.36,0,2.54,1.17,2.54,2.57c0,1.33-1.17,2.46-2.54,2.46c-1.4,0-2.5-1.13-2.5-2.46
			C220.85,62.29,221.94,61.12,223.35,61.12z M221.48,71.34h3.86v17.55h-3.86V71.34z"/>
		<path class="st2" d="M229.7,71.88l2.42-0.55l0.97-5.11h2.69v5.11h4.68v2.81h-4.68v8.62c0,3.12,1.21,3.78,2.5,3.78
			c0.86,0,1.64-0.31,2.03-0.62v2.15c-0.51,0.51-2.34,1.01-3.43,1.01c-2.81,0-4.95-1.4-4.95-5.73v-9.2h-2.22V71.88z"/>
		<path class="st2" d="M244.21,59.63h3.86v14.39h0.12c0.94-1.52,2.65-3.08,5.15-3.08c4.76,0,6.83,2.81,6.83,8.78v9.17h-3.86v-8.54
			c0-3.67-0.82-6.08-3.98-6.08c-2.3,0-3.74,2.22-4.25,4.95v9.67h-3.86V59.63z"/>
		<path class="st2" d="M291.99,61.58v3.51h-12.13v8.62h10.96v3.2h-10.96v11.97h-4.21v-27.3H291.99z"/>
		<path class="st2" d="M301.07,77.97c1.52,0,3.12,0.43,4.13,0.78v-0.59c-0.12-2.77-1.52-4.17-4.25-4.17c-1.91,0-3.55,0.86-4.56,1.52
			l-1.25-2.54c1.64-1.01,3.78-2.03,6.63-2.03c5.07,0,7.29,2.57,7.29,7.61v6.9c0,1.33,0.27,2.54,0.82,3.43h-3.9
			c-0.31-0.51-0.51-1.13-0.58-1.79h-0.12c-1.09,1.09-2.89,2.18-5.3,2.18c-3.82,0-5.97-2.26-5.97-5.15
			C294.01,79.99,297.37,77.97,301.07,77.97z M301.11,86.51c1.72,0,3.43-1.25,4.13-2.34v-2.81c-0.58-0.47-1.99-0.98-3.31-0.98
			c-2.15,0-4.06,1.13-4.06,3.32C297.88,85.49,299.08,86.51,301.11,86.51z"/>
		<path class="st2" d="M312.5,80.11c0-5.11,2.96-9.13,8.35-9.13c2.38,0,4.25,0.55,5.69,1.44l-1.05,2.54
			c-0.82-0.58-2.18-1.09-3.86-1.09c-3.43,0-5.15,2.85-5.15,6.16c0,3.59,2.07,6.16,5.23,6.16c1.72,0,3.35-0.55,4.21-1.13l1.09,2.46
			c-1.33,0.86-3.28,1.64-6.12,1.64C316.48,89.16,312.5,86.16,312.5,80.11z"/>
		<path class="st2" d="M337.77,71.02c4.72,0,7.61,3.78,7.22,9.48h-11.93c0.12,3.55,2.22,5.77,5.34,5.77c1.87,0,3.94-0.55,4.8-1.09
			l0.9,2.42c-1.29,0.86-3.35,1.6-6.2,1.6c-4.45,0-8.54-3.2-8.54-9.09C329.35,74.1,333.25,71.02,337.77,71.02z M341.71,78.08
			c-0.08-2.5-1.64-4.21-4.02-4.25c-2.61,0-4.21,1.91-4.49,4.25H341.71z"/>
		<path class="st2" d="M349,88.89V59.63h3.86v13.85h0.12c1.13-1.56,2.77-2.46,4.99-2.46c4.37,0,7.84,3.16,7.84,9.09
			s-3.67,9.09-7.76,9.09c-2.3,0-4.17-1.01-5.42-2.77h-0.12l-0.19,2.46H349z M352.87,80.23c0,3.24,1.79,6.08,4.37,6.08
			c2.85,0,4.56-2.81,4.56-6.2s-1.6-6.12-4.56-6.12C354.5,74.03,352.87,76.56,352.87,80.23z"/>
		<path class="st2" d="M369.17,80.11c0-6.01,3.86-9.13,8.39-9.13c4.52,0,8.42,3.12,8.42,9.13s-3.9,9.13-8.42,9.13
			C373.03,89.24,369.17,86.12,369.17,80.11z M377.55,86.2c2.96,0,4.45-2.5,4.45-6.08c0-3.59-1.48-6.12-4.45-6.12
			c-2.89,0-4.41,2.54-4.41,6.12C373.15,83.7,374.67,86.2,377.55,86.2z"/>
		<path class="st2" d="M389.33,80.11c0-6.01,3.86-9.13,8.39-9.13c4.52,0,8.42,3.12,8.42,9.13s-3.9,9.13-8.42,9.13
			C393.19,89.24,389.33,86.12,389.33,80.11z M397.72,86.2c2.96,0,4.45-2.5,4.45-6.08c0-3.59-1.48-6.12-4.45-6.12
			c-2.89,0-4.41,2.54-4.41,6.12C393.31,83.7,394.83,86.2,397.72,86.2z"/>
		<path class="st2" d="M410.27,88.89V59.63h3.86V79.1h0.12l6.94-7.76h4.02l-6.04,6.75l6.4,10.8h-4.21l-4.68-8.03l-2.54,2.85v5.19
			H410.27z"/>
	</g>
</g>
<path id="XMLID_1_" class="st2" d="M468.18,130.11h21.22V76.98h14.8l1.58-17.79H489.4c0,0,0-6.64,0-10.13c0-4.19,0.84-5.85,4.9-5.85
	c3.26,0,11.48,0,11.48,0V24.74c0,0-12.11,0-14.69,0c-15.79,0-22.91,6.95-22.91,20.26c0,11.59,0,14.18,0,14.18h-11.04V77.2h11.04
	V130.11z"/>
</svg>
