<?xml version="1.0" encoding="utf-8"?>
<!-- Generator: Adobe Illustrator 23.0.2, SVG Export Plug-In . SVG Version: 6.00 Build 0)  -->
<svg version="1.1" id="Layer_1" xmlns="http://www.w3.org/2000/svg" xmlns:xlink="http://www.w3.org/1999/xlink" x="0px" y="0px"
	 viewBox="0 0 45 46" style="enable-background:new 0 0 45 46;" xml:space="preserve">
<style type="text/css">
	.st0{fill:#C6C5C4;}
	.st1{fill:#B12F2B;}
	.st2{fill:none;}
	.st3{fill:#C1C1C1;}
	.st4{fill:#A61E22;}
	.st5{fill:#C2C2C2;}
	.st6{fill:#A81812;}
	.st7{fill:#C79571;}
	.st8{fill:#A7C976;}
	.st9{fill:#FFFFFF;}
	.st10{fill:#EEE3D6;}
	.st11{fill:#CBCBCB;}
	.st12{fill:none;stroke:#000000;stroke-width:0.5;stroke-miterlimit:10;}
	.st13{clip-path:url(#SVGID_2_);fill:#C1C1C1;}
	.st14{clip-path:url(#SVGID_2_);fill:#A81812;}
	.st15{fill:#71D45B;}
	.st16{fill:#D1D1D1;}
</style>
<path class="st1" d="M22.4,42.7c-8.7,0-16.4-5.9-18.6-14.4c-0.1-0.4,0.1-0.7,0.5-0.8C4.6,27.4,5,27.7,5.1,28
	c2,7.9,9.1,13.4,17.3,13.4c9.8,0,17.8-8,17.8-17.8c0-0.4,0.3-0.7,0.7-0.7c0.4,0,0.7,0.3,0.7,0.7C41.5,34.1,32.9,42.7,22.4,42.7z"/>
<path class="st1" d="M3.9,23.5c-0.4,0-0.7-0.3-0.7-0.7c0-10.6,8.6-19.2,19.2-19.2c8.7,0,16.4,5.9,18.6,14.4c0.1,0.4-0.1,0.7-0.5,0.8
	c-0.3,0.1-0.7-0.1-0.8-0.5C37.6,10.5,30.5,5,22.4,5C12.5,5,4.5,13,4.5,22.9C4.5,23.3,4.2,23.5,3.9,23.5z"/>
<path class="st1" d="M3.9,23.5c-0.2,0-0.3-0.1-0.5-0.2l-2-2c-0.3-0.3-0.3-0.7,0-0.9c0.3-0.3,0.7-0.3,0.9,0l2,2
	c0.3,0.3,0.3,0.7,0,0.9C4.2,23.5,4,23.5,3.9,23.5z"/>
<path class="st1" d="M3.9,23.5c-0.2,0-0.3-0.1-0.5-0.2c-0.3-0.3-0.3-0.7,0-0.9l2-2c0.3-0.3,0.7-0.3,0.9,0c0.3,0.3,0.3,0.7,0,0.9
	l-2,2C4.2,23.5,4,23.5,3.9,23.5z"/>
<path class="st1" d="M42.8,25.5c-0.2,0-0.3-0.1-0.5-0.2l-2-2c-0.3-0.3-0.3-0.7,0-0.9c0.3-0.3,0.7-0.3,0.9,0l2,2
	c0.3,0.3,0.3,0.7,0,0.9C43.2,25.5,43,25.5,42.8,25.5z"/>
<path class="st1" d="M38.9,25.5c-0.2,0-0.3-0.1-0.5-0.2c-0.3-0.3-0.3-0.7,0-0.9l2-2c0.3-0.3,0.7-0.3,0.9,0c0.3,0.3,0.3,0.7,0,0.9
	l-2,2C39.2,25.5,39.1,25.5,38.9,25.5z"/>
<path class="st1" d="M10.5,38.4c-0.4,0-0.7-0.3-0.7-0.7V20.9c0-0.4,0.3-0.7,0.7-0.7c0.4,0,0.7,0.3,0.7,0.7v16.8
	C11.1,38.1,10.8,38.4,10.5,38.4z"/>
<path class="st1" d="M34.3,38.4c-0.4,0-0.7-0.3-0.7-0.7V20.9c0-0.4,0.3-0.7,0.7-0.7c0.4,0,0.7,0.3,0.7,0.7v16.8
	C34.9,38.1,34.6,38.4,34.3,38.4z"/>
<path class="st1" d="M34.3,21.6H10.5c-0.4,0-0.7-0.3-0.7-0.7c0-0.4,0.3-0.7,0.7-0.7h23.8c0.4,0,0.7,0.3,0.7,0.7
	C34.9,21.3,34.6,21.6,34.3,21.6z"/>
<path class="st1" d="M10.5,21.6c-0.1,0-0.2,0-0.3-0.1c-0.3-0.2-0.4-0.6-0.2-0.9l2-3.3c0.2-0.3,0.6-0.4,0.9-0.2
	c0.3,0.2,0.4,0.6,0.2,0.9l-2,3.3C10.9,21.4,10.7,21.6,10.5,21.6z"/>
<path class="st1" d="M34.3,21.6c-0.2,0-0.4-0.1-0.6-0.3l-2-3.3c-0.2-0.3-0.1-0.7,0.2-0.9c0.3-0.2,0.7-0.1,0.9,0.2l2,3.3
	c0.2,0.3,0.1,0.7-0.2,0.9C34.5,21.5,34.4,21.6,34.3,21.6z"/>
<path class="st1" d="M32.3,18.3H12.4c-0.4,0-0.7-0.3-0.7-0.7c0-0.4,0.3-0.7,0.7-0.7h19.8c0.4,0,0.7,0.3,0.7,0.7
	C32.9,18,32.6,18.3,32.3,18.3z"/>
<path class="st1" d="M19.7,21.6c0,0-0.1,0-0.1,0c-0.4-0.1-0.6-0.4-0.5-0.8l0.7-3.3c0.1-0.4,0.4-0.6,0.8-0.5c0.4,0.1,0.6,0.4,0.5,0.8
	L20.4,21C20.3,21.3,20,21.6,19.7,21.6z"/>
<path class="st1" d="M25,21.6c-0.3,0-0.6-0.2-0.6-0.5l-0.7-3.3c-0.1-0.4,0.2-0.7,0.5-0.8c0.4-0.1,0.7,0.2,0.8,0.5l0.7,3.3
	c0.1,0.4-0.2,0.7-0.5,0.8C25.1,21.6,25,21.6,25,21.6z"/>
<path class="st1" d="M19.7,25.5c-0.4,0-0.7-0.3-0.7-0.7v-4c0-0.4,0.3-0.7,0.7-0.7c0.4,0,0.7,0.3,0.7,0.7v4
	C20.4,25.2,20.1,25.5,19.7,25.5z"/>
<path class="st1" d="M25,25.5c-0.4,0-0.7-0.3-0.7-0.7v-4c0-0.4,0.3-0.7,0.7-0.7c0.4,0,0.7,0.3,0.7,0.7v4
	C25.7,25.2,25.4,25.5,25,25.5z"/>
<path class="st1" d="M25,25.5c-0.1,0-0.1,0-0.2,0l-2.6-0.7c-0.4-0.1-0.6-0.4-0.5-0.8c0.1-0.4,0.4-0.6,0.8-0.5l2.6,0.7
	c0.4,0.1,0.6,0.4,0.5,0.8C25.6,25.3,25.3,25.5,25,25.5z"/>
<path class="st1" d="M19.7,25.5c-0.3,0-0.6-0.2-0.6-0.5c-0.1-0.4,0.1-0.7,0.5-0.8l2.6-0.7c0.4-0.1,0.7,0.1,0.8,0.5
	c0.1,0.4-0.1,0.7-0.5,0.8l-2.6,0.7C19.8,25.5,19.8,25.5,19.7,25.5z"/>
<path class="st1" d="M28.3,33.5H16.4c-0.4,0-0.7-0.3-0.7-0.7c0-0.4,0.3-0.7,0.7-0.7h11.9c0.4,0,0.7,0.3,0.7,0.7
	C29,33.2,28.7,33.5,28.3,33.5z"/>
<path class="st1" d="M28.3,30.8H16.4c-0.4,0-0.7-0.3-0.7-0.7c0-0.4,0.3-0.7,0.7-0.7h11.9c0.4,0,0.7,0.3,0.7,0.7
	C29,30.5,28.7,30.8,28.3,30.8z"/>
<path class="st1" d="M25,36.1h-5.3c-0.4,0-0.7-0.3-0.7-0.7c0-0.4,0.3-0.7,0.7-0.7H25c0.4,0,0.7,0.3,0.7,0.7
	C25.7,35.8,25.4,36.1,25,36.1z"/>
</svg>
