<?xml version="1.0" encoding="utf-8"?>
<!-- Generator: Adobe Illustrator 23.0.2, SVG Export Plug-In . SVG Version: 6.00 Build 0)  -->
<svg version="1.1" id="Layer_1" xmlns="http://www.w3.org/2000/svg" xmlns:xlink="http://www.w3.org/1999/xlink" x="0px" y="0px"
	 viewBox="0 0 45 46" style="enable-background:new 0 0 45 46;" xml:space="preserve">
<style type="text/css">
	.st0{fill:#C6C5C4;}
	.st1{fill:#B12F2B;}
	.st2{fill:none;}
	.st3{fill:#C1C1C1;}
	.st4{fill:#A61E22;}
	.st5{fill:#C2C2C2;}
	.st6{fill:#A81812;}
	.st7{fill:#C79571;}
	.st8{fill:#A7C976;}
	.st9{fill:#FFFFFF;}
	.st10{fill:#EEE3D6;}
	.st11{fill:#CBCBCB;}
	.st12{fill:none;stroke:#000000;stroke-width:0.5;stroke-miterlimit:10;}
	.st13{clip-path:url(#SVGID_2_);fill:#C1C1C1;}
	.st14{clip-path:url(#SVGID_2_);fill:#A81812;}
	.st15{fill:#71D45B;}
	.st16{fill:#D1D1D1;}
</style>
<g>
	<g>
		<g>
			<path class="st1" d="M42.9,27.8c0,0,0-0.1-0.1-0.1c-1.1-1.4-3.2-1.6-4.6-0.5c-1.7,1.4-4.3,3.5-5.9,4.8c-1.2,0.9-2.6,1.5-4.1,1.5
				l-4.5,0.1c-0.2,0-0.3-0.1-0.4-0.2l-0.5-0.9c-0.1-0.1-0.1-0.3,0-0.5c0.1-0.1,0.2-0.3,0.4-0.3l4.6-0.9c1.6-0.3,2.8-1.8,2.6-3.5
				c-0.2-1.6-1.5-2.8-3.1-2.8c0,0-0.1,0-0.2,0l-6.2-0.3c-2.5-0.1-4.6,0.4-7,1.6l-3.2,1.6C10.2,26.6,9.2,26,8.2,26H4.6
				c-1.5,0-2.7,1.2-2.7,2.7V42c0,1.5,1.2,2.7,2.7,2.7h3.6c1.5,0,2.7-1.2,2.7-2.7v-0.9l3.4-0.6c1.1-0.2,1.8-0.2,3-0.2l9.4,0.4
				c3.4,0.1,6.7-1,9.3-3.1l6.5-5.4l0,0C43.8,31.1,44,29.2,42.9,27.8z M9.1,42c0,0.5-0.4,1-1,1H4.6c-0.5,0-1-0.4-1-1V28.7
				c0-0.5,0.4-1,1-1h3.6c0.5,0,1,0.4,1,1V42z M41.3,30.9l-6.5,5.4c-2.3,1.9-5.2,2.9-8.1,2.7l-9.4-0.4c-1.3-0.1-2.1,0-3.3,0.2
				c0,0,0,0,0,0l-3.1,0.6v-10l3.7-1.8c2.2-1.1,4.1-1.5,6.2-1.4l6.2,0.3c0,0,0.1,0,0.1,0c0,0,0,0,0.1,0c0.7,0,1.3,0.5,1.4,1.3
				c0.1,0.8-0.4,1.4-1.2,1.6l-4.6,0.9c-1.2,0.2-2,1.4-1.8,2.6c0.1,0.3,0.1,0.5,0.3,0.7l0.5,0.8c0.4,0.7,1.2,1.1,2,1.1l4.5-0.1
				c1.9-0.1,3.7-0.7,5.1-1.9c1.7-1.3,4.2-3.4,5.9-4.8c0.6-0.5,1.5-0.4,2.1,0.2c0,0,0,0.1,0.1,0.1C42,29.5,41.9,30.4,41.3,30.9z"/>
		</g>
	</g>
</g>
<g>
	<g>
		<g>
			<path class="st1" d="M29.7,1.4c-6.3,0-11.4,5.1-11.4,11.4s5.1,11.4,11.4,11.4s11.4-5.1,11.4-11.4S36,1.4,29.7,1.4z M29.7,22.5
				c-5.3,0-9.7-4.3-9.7-9.7c0,0,0,0,0,0c0-5.3,4.3-9.7,9.7-9.7c5.3,0,9.7,4.3,9.7,9.7S35,22.5,29.7,22.5z"/>
		</g>
	</g>
</g>
<g>
	<g>
		<g>
			<path class="st1" d="M33.1,10.1h-1.2c-0.1-0.4-0.3-0.8-0.5-1.2h1.7c0.5,0,0.9-0.4,0.9-0.9s-0.4-0.9-0.9-0.9h-6.8
				c-0.5,0-0.9,0.4-0.9,0.9s0.4,0.9,0.9,0.9h2c0.8,0,1.5,0.5,1.9,1.2h-3.8c-0.5,0-0.9,0.4-0.9,0.9c0,0.5,0.4,0.9,0.9,0.9h3.8
				c-0.1,0.2-0.2,0.4-0.4,0.6c-0.4,0.4-0.9,0.6-1.5,0.6h-2c-0.5,0-0.9,0.4-0.9,0.9c0,0.2,0.1,0.5,0.3,0.6l4.9,4.6
				c0.3,0.3,0.9,0.3,1.2,0c0.3-0.3,0.3-0.9,0-1.2l-3.3-3.1c0.9-0.1,1.8-0.4,2.5-1.1c0.5-0.5,0.8-1.1,1-1.8h1.2
				c0.5,0,0.9-0.4,0.9-0.9S33.6,10.1,33.1,10.1z"/>
		</g>
	</g>
</g>
</svg>
