<?xml version="1.0" encoding="utf-8"?>
<!-- Generator: Adobe Illustrator 23.0.2, SVG Export Plug-In . SVG Version: 6.00 Build 0)  -->
<svg version="1.1" id="Layer_1" xmlns="http://www.w3.org/2000/svg" xmlns:xlink="http://www.w3.org/1999/xlink" x="0px" y="0px"
	 viewBox="0 0 45 46" style="enable-background:new 0 0 45 46;" xml:space="preserve">
<style type="text/css">
	.st0{fill:#C6C5C4;}
	.st1{fill:#B12F2B;}
	.st2{fill:none;}
	.st3{fill:#C1C1C1;}
	.st4{fill:#A61E22;}
	.st5{fill:#C2C2C2;}
	.st6{fill:#A81812;}
	.st7{fill:#C79571;}
	.st8{fill:#A7C976;}
	.st9{fill:#FFFFFF;}
	.st10{fill:#EEE3D6;}
	.st11{fill:#CBCBCB;}
	.st12{fill:none;stroke:#000000;stroke-width:0.5;stroke-miterlimit:10;}
	.st13{clip-path:url(#SVGID_2_);fill:#C1C1C1;}
	.st14{clip-path:url(#SVGID_2_);fill:#A81812;}
	.st15{fill:#71D45B;}
	.st16{fill:#D1D1D1;}
</style>
<g>
	<g>
		<g>
			<path class="st1" d="M39.7,36.8l-1.9-24.2c-0.1-1.6-1.4-2.8-3-2.8H31V9.6c0-4.6-3.7-8.3-8.3-8.3S14.3,5,14.3,9.6v0.2h-3.8
				c-1.6,0-2.9,1.2-3,2.8L5.6,36.8c-0.1,1.9,0.5,3.9,1.8,5.3c1.3,1.4,3.2,2.2,5.1,2.2h20.1c1.9,0,3.8-0.8,5.1-2.2
				C39.2,40.6,39.9,38.7,39.7,36.8z M16.9,9.6c0-3.2,2.6-5.8,5.8-5.8s5.8,2.6,5.8,5.8v0.2H16.9V9.6z M36,40.3
				c-0.9,0.9-2,1.4-3.3,1.4H12.6c-1.3,0-2.4-0.5-3.3-1.4C8.4,39.4,8,38.2,8.1,37L10,12.7c0-0.3,0.2-0.5,0.5-0.5h3.8v3.1
				c0,0.7,0.6,1.3,1.3,1.3c0.7,0,1.3-0.6,1.3-1.3v-3.1h11.6v3.1c0,0.7,0.6,1.3,1.3,1.3c0.7,0,1.3-0.6,1.3-1.3v-3.1h3.8
				c0.3,0,0.5,0.2,0.5,0.5L37.2,37C37.3,38.2,36.9,39.4,36,40.3z"/>
		</g>
	</g>
</g>
<g>
	<g>
		<g>
			<path class="st1" d="M28.3,22.6c-0.5-0.5-1.3-0.5-1.8,0l-5.6,5.6l-2.2-2.2c-0.5-0.5-1.3-0.5-1.8,0c-0.5,0.5-0.5,1.3,0,1.8
				l3.1,3.1c0.2,0.2,0.6,0.4,0.9,0.4c0.3,0,0.6-0.1,0.9-0.4l6.5-6.5C28.8,23.9,28.8,23.1,28.3,22.6z"/>
		</g>
	</g>
</g>
</svg>
