<?xml version="1.0" encoding="utf-8"?>
<!-- Generator: Adobe Illustrator 23.0.2, SVG Export Plug-In . SVG Version: 6.00 Build 0)  -->
<svg version="1.1" id="Layer_1" xmlns="http://www.w3.org/2000/svg" xmlns:xlink="http://www.w3.org/1999/xlink" x="0px" y="0px"
	 viewBox="0 0 45 46" style="enable-background:new 0 0 45 46;" xml:space="preserve">
<style type="text/css">
	.st0{fill:#C6C5C4;}
	.st1{fill:#B12F2B;}
	.st2{fill:none;}
	.st3{fill:#C1C1C1;}
	.st4{fill:#A61E22;}
	.st5{fill:#C2C2C2;}
	.st6{fill:#A81812;}
	.st7{fill:#C79571;}
	.st8{fill:#A7C976;}
	.st9{fill:#FFFFFF;}
	.st10{fill:#EEE3D6;}
	.st11{fill:#CBCBCB;}
	.st12{fill:none;stroke:#000000;stroke-width:0.5;stroke-miterlimit:10;}
	.st13{clip-path:url(#SVGID_2_);fill:#C1C1C1;}
	.st14{clip-path:url(#SVGID_2_);fill:#A81812;}
	.st15{fill:#71D45B;}
	.st16{fill:#D1D1D1;}
</style>
<g>
	<g>
		<g>
			<path class="st1" d="M6.3,25.6c-0.4,0-0.7,0.3-0.7,0.7v3c0,0.4,0.3,0.7,0.7,0.7c0.4,0,0.7-0.3,0.7-0.7v-3
				C7,25.9,6.7,25.6,6.3,25.6z"/>
		</g>
	</g>
</g>
<g>
	<g>
		<g>
			<path class="st1" d="M9.3,27.1c-0.4,0-0.7,0.3-0.7,0.7v3c0,0.4,0.3,0.7,0.7,0.7c0.4,0,0.7-0.3,0.7-0.7v-3
				C10,27.4,9.7,27.1,9.3,27.1z"/>
		</g>
	</g>
</g>
<g>
	<g>
		<g>
			<path class="st1" d="M36.5,31.1c-0.3-0.2-0.8-0.1-1,0.2c-0.2,0.3-0.1,0.8,0.2,1c2.1,1.4,2.6,4.2,1.2,6.2
				c-1.4,2.1-4.2,2.6-6.2,1.2c-2.1-1.4-2.6-4.2-1.2-6.2c0.8-1.2,2.2-2,3.7-2c0.4,0,0.7-0.3,0.7-0.7s-0.3-0.7-0.7-0.7
				c-3.3,0-6,2.7-6,6c0,3.3,2.7,6,6,6c3.3,0,6-2.7,6-6C39.1,34.1,38.1,32.2,36.5,31.1z"/>
		</g>
	</g>
</g>
<g>
	<g>
		<g>
			<path class="st1" d="M41.8,33.6c-0.7-2.5-2.5-4.6-4.9-5.7V11.4c0-0.3-0.1-0.5-0.4-0.6L20.1,1.1c-0.2-0.1-0.5-0.1-0.8,0L2.9,10.8
				c0,0,0,0,0,0s0,0,0,0C2.8,10.9,2.7,11,2.7,11c0,0,0,0,0,0v0c0,0.1-0.1,0.2-0.1,0.2c0,0,0,0,0,0.1c0,0,0,0,0,0.1v19.4
				c0,0.3,0.1,0.5,0.4,0.6l16.4,9.7c0,0,0,0,0.1,0c0,0,0,0,0.1,0c0.2,0.1,0.3,0.1,0.5,0c0,0,0,0,0.1,0c0,0,0,0,0.1,0l4.5-2.6
				c1.4,4.7,6.3,7.5,11.1,6.1C40.4,43.3,43.1,38.3,41.8,33.6z M19.7,2.6l3.9,2.3l-5.8,3.4c-0.4,0.2-0.5,0.7-0.3,1
				c0.2,0.4,0.7,0.5,1,0.3l6.5-3.8l3.9,2.3L14,16.9l-3.9-2.3l6.3-3.7c0.4-0.2,0.5-0.7,0.3-1c-0.2-0.4-0.7-0.5-1-0.3l-7,4.1l-3.9-2.3
				L19.7,2.6z M13.3,18.2v5l-3.9-2.3v-5L13.3,18.2z M24.5,33.8c-0.2,0.8-0.3,1.5-0.3,2.3c0,0.3,0,0.6,0,0.9l-3.8,2.2v-2.4
				c0-0.4-0.3-0.7-0.7-0.7S19,36.4,19,36.8v2.4L4.1,30.4V12.7L7.9,15v6.3c0,0.3,0.1,0.5,0.4,0.6l5.3,3.2c0.1,0.1,0.2,0.1,0.4,0.1
				c0.4,0,0.7-0.3,0.7-0.7v-5.4l4.2,2.5v12.3c0,0.4,0.3,0.7,0.7,0.7s0.7-0.3,0.7-0.7V21.6l13.5-8c0.4-0.2,0.5-0.7,0.3-1
				c-0.2-0.4-0.7-0.5-1-0.3l-13.5,8l-4.3-2.5l14.9-8.8l5,2.9v15.5C30.6,26.1,25.7,29,24.5,33.8z M33.2,43.5c-4.1,0-7.5-3.3-7.5-7.5
				s3.3-7.5,7.5-7.5s7.5,3.3,7.5,7.5C40.6,40.2,37.3,43.5,33.2,43.5z"/>
		</g>
	</g>
</g>
<g>
	<g>
		<g>
			<path class="st1" d="M35.9,34c-0.3-0.3-0.7-0.3-1,0L32,36.9l-0.6-0.6c-0.3-0.3-0.8-0.3-1.1,0c-0.3,0.3-0.3,0.7,0,1l1.1,1.1
				c0.3,0.3,0.8,0.3,1.1,0l3.4-3.4C36.2,34.8,36.2,34.3,35.9,34z"/>
		</g>
	</g>
</g>
</svg>
