<?xml version="1.0" encoding="utf-8"?>
<!-- Generator: Adobe Illustrator 23.0.2, SVG Export Plug-In . SVG Version: 6.00 Build 0)  -->
<svg version="1.1" id="Layer_1" xmlns="http://www.w3.org/2000/svg" xmlns:xlink="http://www.w3.org/1999/xlink" x="0px" y="0px"
	 viewBox="0 0 45 46" style="enable-background:new 0 0 45 46;" xml:space="preserve">
<style type="text/css">
	.st0{fill:#C6C5C4;}
	.st1{fill:#B12F2B;}
	.st2{fill:none;}
	.st3{fill:#C1C1C1;}
	.st4{fill:#A61E22;}
	.st5{fill:#C2C2C2;}
	.st6{fill:#A81812;}
	.st7{fill:#C79571;}
	.st8{fill:#A7C976;}
	.st9{fill:#FFFFFF;}
	.st10{fill:#EEE3D6;}
	.st11{fill:#CBCBCB;}
	.st12{fill:none;stroke:#000000;stroke-width:0.5;stroke-miterlimit:10;}
	.st13{clip-path:url(#SVGID_2_);fill:#C1C1C1;}
	.st14{clip-path:url(#SVGID_2_);fill:#A81812;}
	.st15{fill:#71D45B;}
	.st16{fill:#D1D1D1;}
</style>
<g>
	<g>
		<g>
			<path class="st1" d="M43.2,22.7c0-1.3-0.4-2.6-1.1-3.7c-0.6-0.9-0.9-1.9-0.8-3c0,0,0,0,0,0v0c0.1-2.7-1.3-5.1-3.7-6.4
				c0,0,0,0-0.1,0c-0.9-0.5-1.6-1.2-2.1-2.1c0,0,0,0,0-0.1c-1.2-2.4-3.7-3.8-6.4-3.7h0c0,0,0,0,0,0c-1,0.1-2.1-0.2-3-0.8
				c-2.2-1.5-5.2-1.5-7.4,0c-0.9,0.6-1.9,0.9-3,0.8c0,0,0,0,0,0h0C13,3.7,10.5,5.1,9.3,7.5c0,0,0,0,0,0.1C8.8,8.4,8,9.2,7.1,9.6
				c0,0,0,0-0.1,0c-2.4,1.2-3.8,3.7-3.7,6.3v0c0,0,0,0,0,0c0,0.1,0,0.2,0,0.3c0,1-0.3,1.9-0.8,2.7c-1.5,2.2-1.5,5.2,0,7.4
				c0.6,0.9,0.9,1.9,0.8,3c0,0,0,0,0,0v0c-0.1,2.7,1.3,5.1,3.7,6.4c0,0,0,0,0.1,0C8,36.3,8.8,37.1,9.2,38c0,0,0,0,0,0.1
				c1.2,2.4,3.7,3.8,6.4,3.7h0c0,0,0,0,0,0c0.1,0,0.2,0,0.3,0c1,0,1.9,0.3,2.7,0.8c2.2,1.5,5.2,1.5,7.4,0c0.9-0.6,1.9-0.9,3-0.8
				c0,0,0,0,0,0h0c0.1,0,0.2,0,0.3,0c2.5,0,4.9-1.4,6-3.7c0,0,0,0,0-0.1c0.5-0.9,1.2-1.6,2.1-2.1c0,0,0,0,0.1,0
				c2.4-1.2,3.8-3.7,3.7-6.4v0c0,0,0,0,0,0c0-0.1,0-0.2,0-0.3c0-1,0.3-1.9,0.8-2.7C42.8,25.3,43.2,24.1,43.2,22.7z M40.6,25.4
				c-0.7,1.1-1.1,2.4-1.1,3.7c0,0.1,0,0.2,0,0.3v0c0,0,0,0,0,0.1c0.1,1.9-0.9,3.7-2.6,4.6c0,0,0,0-0.1,0c-1.3,0.7-2.3,1.7-3,3
				c0,0,0,0,0,0.1c-0.9,1.7-2.7,2.8-4.6,2.7c0,0,0,0-0.1,0h0c-1.4-0.1-2.9,0.3-4.1,1.1c-1.6,1.1-3.7,1.1-5.4,0
				c-1.1-0.7-2.4-1.1-3.7-1.1c-0.1,0-0.2,0-0.3,0h0c0,0,0,0-0.1,0c-1.9,0.1-3.7-0.9-4.6-2.6c0,0,0,0,0-0.1c-0.7-1.3-1.7-2.3-3-3
				c0,0,0,0-0.1,0c-1.7-0.9-2.8-2.7-2.7-4.6c0,0,0,0,0-0.1v0c0.1-1.4-0.3-2.9-1.1-4.1c-1.1-1.6-1.1-3.7,0-5.4
				c0.7-1.1,1.1-2.4,1.1-3.7c0-0.1,0-0.2,0-0.3v0c0,0,0,0,0-0.1c-0.1-1.9,0.9-3.7,2.6-4.6c0,0,0,0,0.1,0c1.3-0.7,2.3-1.7,3-3
				c0,0,0,0,0-0.1c0.9-1.7,2.7-2.8,4.6-2.7c0,0,0,0,0.1,0h0c1.4,0.1,2.9-0.3,4.1-1.1c1.6-1.1,3.7-1.1,5.4,0c1.2,0.8,2.6,1.2,4.1,1.1
				h0c0,0,0,0,0.1,0c1.9-0.1,3.7,0.9,4.6,2.6c0,0,0,0,0,0.1c0.7,1.3,1.7,2.3,3,3c0,0,0,0,0.1,0c1.7,0.9,2.8,2.7,2.7,4.6
				c0,0,0,0,0,0.1v0c-0.1,1.4,0.3,2.9,1.1,4.1C41.6,21.7,41.6,23.8,40.6,25.4z"/>
		</g>
	</g>
</g>
<g>
	<g>
		<g>
			<path class="st1" d="M29.7,10.5c-0.4-0.3-1-0.1-1.3,0.3L14.7,33.7c-0.3,0.4-0.1,1,0.3,1.3c0.4,0.3,1,0.1,1.3-0.3L30,11.8
				C30.3,11.4,30.1,10.8,29.7,10.5z"/>
		</g>
	</g>
</g>
<g>
	<g>
		<g>
			<path class="st1" d="M16.1,11c-2.7,0-4.9,2.6-4.9,5.8s2.2,5.8,4.9,5.8s4.9-2.6,4.9-5.8C21,13.6,18.8,11,16.1,11z M16.1,20.7
				c-1.7,0-3-1.8-3-3.9s1.4-3.9,3-3.9s3,1.8,3,3.9S17.8,20.7,16.1,20.7z"/>
		</g>
	</g>
</g>
<g>
	<g>
		<g>
			<path class="st1" d="M28.6,23c-2.7,0-4.9,2.6-4.9,5.8s2.2,5.8,4.9,5.8s4.9-2.6,4.9-5.8S31.3,23,28.6,23z M28.6,32.7
				c-1.7,0-3-1.8-3-3.9s1.4-3.9,3-3.9s3,1.8,3,3.9S30.3,32.7,28.6,32.7z"/>
		</g>
	</g>
</g>
</svg>
