<?xml version="1.0" encoding="utf-8"?>
<!-- Generator: Adobe Illustrator 23.0.2, SVG Export Plug-In . SVG Version: 6.00 Build 0)  -->
<svg version="1.1" id="Layer_1" xmlns="http://www.w3.org/2000/svg" xmlns:xlink="http://www.w3.org/1999/xlink" x="0px" y="0px"
	 viewBox="0 0 45 46" style="enable-background:new 0 0 45 46;" xml:space="preserve">
<style type="text/css">
	.st0{fill:#C6C5C4;}
	.st1{fill:#B12F2B;}
	.st2{fill:none;}
	.st3{fill:#C1C1C1;}
	.st4{fill:#A61E22;}
	.st5{fill:#C2C2C2;}
	.st6{fill:#A81812;}
	.st7{fill:#C79571;}
	.st8{fill:#A7C976;}
	.st9{fill:#FFFFFF;}
	.st10{fill:#EEE3D6;}
	.st11{fill:#CBCBCB;}
	.st12{fill:none;stroke:#000000;stroke-width:0.5;stroke-miterlimit:10;}
	.st13{clip-path:url(#SVGID_2_);fill:#C1C1C1;}
	.st14{clip-path:url(#SVGID_2_);fill:#A81812;}
	.st15{fill:#71D45B;}
	.st16{fill:#D1D1D1;}
</style>
<path class="st1" d="M12.3,30.3H9c-0.5,0-0.8-0.4-0.8-0.8s0.4-0.8,0.8-0.8h3.3c0.5,0,0.8,0.4,0.8,0.8S12.8,30.3,12.3,30.3z"/>
<path class="st1" d="M39.4,30.3h-2.1c-0.5,0-0.8-0.4-0.8-0.8s0.4-0.8,0.8-0.8h1.4l1.1-6c0-3.1-2.6-5.7-5.8-5.7h-5.5l-2.6,11.6h4.8
	c0.5,0,0.8,0.4,0.8,0.8s-0.4,0.8-0.8,0.8h-5.8c-0.3,0-0.5-0.1-0.7-0.3c-0.2-0.2-0.2-0.5-0.2-0.7L27,16c0.1-0.4,0.4-0.6,0.8-0.6h6.1
	c4.1,0,7.5,3.4,7.5,7.5l-1.3,6.8C40.1,30,39.8,30.3,39.4,30.3z"/>
<path class="st1" d="M33.9,33.7c-2.3,0-4.2-1.9-4.2-4.2s1.9-4.2,4.2-4.2s4.2,1.9,4.2,4.2S36.2,33.7,33.9,33.7z M33.9,27
	c-1.4,0-2.5,1.1-2.5,2.5s1.1,2.5,2.5,2.5c1.4,0,2.5-1.1,2.5-2.5S35.3,27,33.9,27z"/>
<path class="st1" d="M15.7,33.7c-2.3,0-4.2-1.9-4.2-4.2s1.9-4.2,4.2-4.2s4.2,1.9,4.2,4.2S17.9,33.7,15.7,33.7z M15.7,27
	c-1.4,0-2.5,1.1-2.5,2.5s1.1,2.5,2.5,2.5s2.5-1.1,2.5-2.5S17,27,15.7,27z"/>
<path class="st1" d="M12.3,15.4H5.7c-0.5,0-0.8-0.4-0.8-0.8s0.4-0.8,0.8-0.8h6.7c0.5,0,0.8,0.4,0.8,0.8S12.8,15.4,12.3,15.4z"/>
<path class="st1" d="M12.3,20.3H4c-0.5,0-0.8-0.4-0.8-0.8s0.4-0.8,0.8-0.8h8.3c0.5,0,0.8,0.4,0.8,0.8S12.8,20.3,12.3,20.3z"/>
<path class="st1" d="M12.3,25.3h-10c-0.5,0-0.8-0.4-0.8-0.8s0.4-0.8,0.8-0.8h10c0.5,0,0.8,0.4,0.8,0.8S12.8,25.3,12.3,25.3z"/>
<path class="st1" d="M24.8,30.3H19c-0.5,0-0.8-0.4-0.8-0.8s0.4-0.8,0.8-0.8h5.2L27.9,12H9c-0.5,0-0.8-0.4-0.8-0.8s0.4-0.8,0.8-0.8
	h20c0.3,0,0.5,0.1,0.7,0.3c0.2,0.2,0.2,0.5,0.2,0.7l-4.2,18.3C25.5,30.1,25.2,30.3,24.8,30.3L24.8,30.3z"/>
</svg>
