<?xml version="1.0" encoding="utf-8"?>
<!-- Generator: Adobe Illustrator 23.0.2, SVG Export Plug-In . SVG Version: 6.00 Build 0)  -->
<svg version="1.1" id="Layer_1" xmlns="http://www.w3.org/2000/svg" xmlns:xlink="http://www.w3.org/1999/xlink" x="0px" y="0px"
	 viewBox="0 0 20 17" style="enable-background:new 0 0 20 17;" xml:space="preserve">
<style type="text/css">
	.st0{fill:#C6C5C4;}
	.st1{fill:#B12F2B;}
	.st2{fill:none;}
	.st3{fill:#C1C1C1;}
	.st4{fill:#A61E22;}
	.st5{fill:#C2C2C2;}
	.st6{fill:#A81812;}
	.st7{fill:#C79571;}
	.st8{fill:#A7C976;}
	.st9{fill:#FFFFFF;}
	.st10{fill:#EEE3D6;}
	.st11{fill:#CBCBCB;}
	.st12{fill:none;stroke:#000000;stroke-width:0.5;stroke-miterlimit:10;}
	.st13{clip-path:url(#SVGID_2_);fill:#C1C1C1;}
	.st14{clip-path:url(#SVGID_2_);fill:#A81812;}
	.st15{fill:#71D45B;}
	.st16{fill:#D1D1D1;}
</style>
<g>
	<path class="st11" d="M17.3,1.7H2.6C1.7,1.7,1,2.4,1,3.3v1.3v9.6c0,0.9,0.7,1.6,1.6,1.6h14.8c0.9,0,1.6-0.7,1.6-1.6V4.6V3.3
		C18.9,2.4,18.2,1.7,17.3,1.7z M1.6,3.3c0-0.5,0.4-1,1-1h14.8c0.5,0,1,0.4,1,1v1H1.6V3.3z M18.3,14.2c0,0.5-0.4,1-1,1H2.6
		c-0.5,0-1-0.4-1-1V4.9h16.7C18.3,4.9,18.3,14.2,18.3,14.2z"/>
	<path class="st11" d="M3.2,8.8h1.3c0.2,0,0.3-0.1,0.3-0.3V7.2c0-0.2-0.1-0.3-0.3-0.3H3.2C3,6.9,2.9,7,2.9,7.2v1.3
		C2.9,8.6,3,8.8,3.2,8.8z M3.5,7.5h0.6v0.6H3.5V7.5z"/>
	<path class="st11" d="M3.2,13.3h1.3c0.2,0,0.3-0.1,0.3-0.3v-1.3c0-0.2-0.1-0.3-0.3-0.3H3.2c-0.2,0-0.3,0.1-0.3,0.3V13
		C2.9,13.1,3,13.3,3.2,13.3z M3.5,12h0.6v0.6H3.5V12z"/>
	<path class="st11" d="M7,13.3h1.3c0.2,0,0.3-0.1,0.3-0.3v-1.3c0-0.2-0.1-0.3-0.3-0.3H7.1c-0.2,0-0.3,0.1-0.3,0.3V13
		C6.7,13.1,6.9,13.3,7,13.3z M7.4,12H8v0.6H7.4V12z"/>
	<path class="st11" d="M7,8.8h1.3c0.2,0,0.3-0.1,0.3-0.3V7.2c0-0.2-0.1-0.3-0.3-0.3H7.1C6.9,6.9,6.7,7,6.7,7.2v1.3
		C6.7,8.6,6.9,8.8,7,8.8z M7.4,7.5H8v0.6H7.4V7.5z"/>
	<path class="st11" d="M10.9,8.8h1.3c0.2,0,0.3-0.1,0.3-0.3V7.2c0-0.2-0.1-0.3-0.3-0.3h-1.3c-0.2,0-0.3,0.1-0.3,0.3v1.3
		C10.6,8.6,10.7,8.8,10.9,8.8z M11.2,7.5h0.6v0.6h-0.6V7.5z"/>
	<path class="st11" d="M14.8,8.8H16c0.2,0,0.3-0.1,0.3-0.3V7.2c0-0.2-0.1-0.3-0.3-0.3h-1.3c-0.2,0-0.3,0.1-0.3,0.3v1.3
		C14.4,8.6,14.6,8.8,14.8,8.8z M15.1,7.5h0.6v0.6h-0.6V7.5z"/>
	<path class="st11" d="M10.9,13.3h1.3c0.2,0,0.3-0.1,0.3-0.3v-1.3c0-0.2-0.1-0.3-0.3-0.3h-1.3c-0.2,0-0.3,0.1-0.3,0.3V13
		C10.6,13.1,10.7,13.3,10.9,13.3z M11.2,12h0.6v0.6h-0.6V12z"/>
	<path class="st11" d="M14.8,13.3H16c0.2,0,0.3-0.1,0.3-0.3v-1.3c0-0.2-0.1-0.3-0.3-0.3h-1.3c-0.2,0-0.3,0.1-0.3,0.3V13
		C14.4,13.1,14.6,13.3,14.8,13.3z M15.1,12h0.6v0.6h-0.6V12z"/>
</g>
</svg>
