<?xml version="1.0" encoding="utf-8"?>
<!-- Generator: Adobe Illustrator 23.0.2, SVG Export Plug-In . SVG Version: 6.00 Build 0)  -->
<svg version="1.1" id="Layer_1" xmlns="http://www.w3.org/2000/svg" xmlns:xlink="http://www.w3.org/1999/xlink" x="0px" y="0px"
	 viewBox="0 0 220 20" style="enable-background:new 0 0 220 20;" xml:space="preserve">
<style type="text/css">
	.st0{fill:#C6C5C4;}
	.st1{fill:#B12F2B;}
	.st2{fill:none;}
	.st3{fill:#C1C1C1;}
	.st4{fill:#A61E22;}
	.st5{fill:#C2C2C2;}
	.st6{fill:#A81812;}
	.st7{fill:#C79571;}
	.st8{fill:#A7C976;}
	.st9{fill:#FFFFFF;}
	.st10{fill:#EEE3D6;}
	.st11{fill:#CBCBCB;}
	.st12{fill:none;stroke:#000000;stroke-width:0.5;stroke-miterlimit:10;}
	.st13{clip-path:url(#SVGID_2_);fill:#C1C1C1;}
	.st14{clip-path:url(#SVGID_2_);fill:#A81812;}
	.st15{fill:#71D45B;}
	.st16{fill:#D1D1D1;}
</style>
<g>
	<g>
		<g>
			<path class="st1" d="M2.7,5.1c0.4,0.5,1.1,0.8,1.7,1.1c2.1,1,4.5,1.6,6.8,1.9c4.8,0.8,9.7,0.9,14.6,0.8c8.4-0.2,16.8-1,25.2-2.2
				c10.4-1.4,20.8-2.7,31.3-2.7c0.3,0,0.3-0.4,0-0.4c-8.8,0-17.6,0.8-26.3,2c-9,1.2-18,2.5-27.1,2.8C23.5,8.7,18.1,8.7,12.8,8
				c-2.6-0.3-5.3-0.8-7.7-1.9C4.4,5.7,3.5,5.4,3,4.8C2.8,4.5,2.5,4.8,2.7,5.1L2.7,5.1z"/>
		</g>
		<g>
			<path class="st1" d="M137.8,4.1c9.2,0,18.3,0.9,27.4,2.2c8.8,1.3,17.7,2.4,26.7,2.7c5.2,0.2,10.5,0.2,15.8-0.6
				c2.6-0.4,5.2-0.9,7.6-1.9c0.7-0.3,1.6-0.7,2.2-1.3c0.2-0.2-0.1-0.5-0.3-0.3c-0.4,0.5-1.1,0.8-1.6,1.1c-2.1,1-4.5,1.5-6.8,1.9
				c-4.9,0.8-9.9,0.9-14.9,0.8c-8.7-0.2-17.3-1.1-25.9-2.4c-9.9-1.4-19.9-2.5-30-2.5C137.5,3.6,137.5,4.1,137.8,4.1L137.8,4.1z"/>
		</g>
	</g>
	<g>
		<g>
			<path class="st1" d="M137.8,3.8c-21.2,0-27.8,12.9-27.8,12.9S103.4,3.9,82.2,3.8c21.2,0,27.8,4.9,27.8,4.9S116.6,3.9,137.8,3.8z"
				/>
			<g>
				<path class="st1" d="M137.8,3.6c-9.9,0-20.7,3.1-26.9,11.4c-0.4,0.5-0.8,1.1-1.1,1.7c0.1,0,0.2,0,0.4,0
					c-0.9-1.7-2.2-3.2-3.6-4.5c-3.5-3.3-7.8-5.6-12.4-6.9c-3.9-1.1-7.9-1.6-12-1.6c0,0.1,0,0.3,0,0.4c6.2,0,12.4,0.4,18.5,1.7
					c2.8,0.6,5.6,1.3,8.1,2.6c0.3,0.2,0.7,0.4,1,0.6c0.1,0,0.2,0,0.2,0c1-0.7,2.3-1.2,3.4-1.6c4-1.5,8.2-2.2,12.4-2.7
					c3.9-0.4,7.9-0.6,11.8-0.6C138,4.1,138,3.6,137.8,3.6c-6.2,0-12.5,0.4-18.6,1.7c-2.8,0.6-5.6,1.4-8.2,2.7
					c-0.4,0.2-0.7,0.5-1.1,0.6c0.1-0.1,0.3,0.1,0.1-0.1c-0.2-0.1-0.4-0.2-0.5-0.3c-2.2-1.2-4.7-1.9-7.1-2.5c-6.6-1.6-13.4-2-20.2-2
					c-0.3,0-0.3,0.4,0,0.4c9.8,0,20.5,3.1,26.6,11.3c0.4,0.5,0.7,1,1,1.6c0.1,0.1,0.3,0.1,0.4,0c0.8-1.6,2.1-3,3.4-4.3
					c3.4-3.3,7.6-5.6,12.2-6.9c3.9-1.2,8-1.6,12-1.6C138,4.1,138,3.6,137.8,3.6z"/>
			</g>
		</g>
	</g>
</g>
</svg>
