<?xml version="1.0" encoding="utf-8"?>
<!-- Generator: Adobe Illustrator 23.0.2, SVG Export Plug-In . SVG Version: 6.00 Build 0)  -->
<svg version="1.1" id="Layer_1" xmlns="http://www.w3.org/2000/svg" xmlns:xlink="http://www.w3.org/1999/xlink" x="0px" y="0px"
	 viewBox="0 0 58.4 71" style="enable-background:new 0 0 58.4 71;" xml:space="preserve">
<style type="text/css">
	.st0{fill:#C6C5C4;}
	.st1{fill:#B12F2B;}
	.st2{fill:none;}
	.st3{fill:#C1C1C1;}
	.st4{fill:#A61E22;}
	.st5{fill:#C2C2C2;}
	.st6{fill:#A81812;}
	.st7{fill:#C79571;}
	.st8{fill:#A7C976;}
	.st9{fill:#FFFFFF;}
	.st10{fill:#EEE3D6;}
	.st11{fill:#CBCBCB;}
	.st12{fill:none;stroke:#000000;stroke-width:0.5;stroke-miterlimit:10;}
	.st13{clip-path:url(#SVGID_2_);fill:#C1C1C1;}
	.st14{clip-path:url(#SVGID_2_);fill:#A81812;}
	.st15{fill:#71D45B;}
	.st16{fill:#D1D1D1;}
</style>
<g>
	<path class="st5" d="M34.7,35.4l4.6-6.9c4.5-7.6,4.2-13.5,2.6-17.8c-1.5-3.9-4.1-6.3-5.1-7.2c-0.1-0.1-0.2-0.1-0.2-0.1c0,0,0,0,0,0
		c-3-2-5.7-2.7-8.1-2.7c-4.8,0-8,2.7-8,2.7c0,0,0,0,0,0c0,0,0,0,0,0c0,0-0.1,0-0.2,0.1C18,5.4,9,14.1,17.6,28.6l4.6,6.9L7.1,56.3
		c-0.7,1-0.9,2.6-0.4,3.7l3.6,8.6c0.2,0.6,0.6,0.9,1,0.9c0.3,0,0.7-0.2,1-0.7l16.1-24.1l16.1,24.1c0.3,0.5,0.7,0.7,1,0.7
		c0.4,0,0.8-0.3,1-0.9l3.6-8.6c0.5-1.1,0.3-2.8-0.4-3.7L34.7,35.4z M28.4,26.8l-5-7c0,0-3.3-4.4-3.8-9.8c3.1-1.4,6.1-1.9,8.7-1.9
		c4.1,0,7.3,1.1,9,1.9c-0.5,5.4-3.8,9.9-3.8,9.9L28.4,26.8z M21,4.4c0,0,3-2.4,7.3-2.4c2.5,0,5,0.8,7.5,2.5c0.3,0.3,1.1,1.4,1.5,3.1
		c0,0.4,0,0.8,0,1.2C35.5,8,32.2,7,28.3,7c-3.1,0-6,0.6-8.8,1.8c0-0.8,0-1.6,0.1-2.3C19.9,5.7,20.3,5,21,4.4z M18.5,28
		c-3.5-5.9-4.4-11.4-2.6-16.3c0.7-2,1.7-3.6,2.6-4.8c-0.8,6.9,3.8,13.2,4,13.5l5.2,7.3l-4.9,6.8L18.5,28z M11.4,68.2
		c0,0.1-0.1,0.1-0.1,0.1c0,0,0-0.1-0.1-0.1l-3.6-8.6c-0.3-0.8-0.2-2,0.3-2.7l26.3-36.5c0.2-0.3,4.8-6.6,4.1-13.5
		c0.9,1.1,1.8,2.5,2.5,4.3c1.9,5.1,1.1,10.8-2.5,16.8L11.4,68.2z M49.2,59.7l-3.6,8.6c0,0.1-0.1,0.1-0.1,0.1c0,0-0.1-0.1-0.1-0.1
		L29,43.8l5-7.4L48.8,57C49.3,57.6,49.5,58.9,49.2,59.7z"/>
	<path class="st6" d="M2.7,33.6h10.2c0.3,0,0.5-0.2,0.5-0.5s-0.2-0.5-0.5-0.5H2.7c-0.3,0-0.5,0.2-0.5,0.5S2.4,33.6,2.7,33.6z"/>
	<path class="st6" d="M13.4,37.3c0-0.3-0.2-0.5-0.5-0.5H2.7c-0.3,0-0.5,0.2-0.5,0.5s0.2,0.5,0.5,0.5h10.2
		C13.1,37.9,13.4,37.6,13.4,37.3z"/>
	<path class="st6" d="M6.9,35.2c0,0.3,0.2,0.5,0.5,0.5h8.6c0.3,0,0.5-0.2,0.5-0.5s-0.2-0.5-0.5-0.5H7.5C7.2,34.7,6.9,34.9,6.9,35.2z
		"/>
	<circle class="st6" cx="5.3" cy="35.2" r="0.5"/>
	<path class="st6" d="M44,33.6h10.2c0.3,0,0.5-0.2,0.5-0.5s-0.2-0.5-0.5-0.5H44c-0.3,0-0.5,0.2-0.5,0.5S43.7,33.6,44,33.6z"/>
	<path class="st6" d="M54.1,36.8H44c-0.3,0-0.5,0.2-0.5,0.5s0.2,0.5,0.5,0.5h10.2c0.3,0,0.5-0.2,0.5-0.5S54.4,36.8,54.1,36.8z"/>
	<path class="st6" d="M40.7,34.7c-0.3,0-0.5,0.2-0.5,0.5s0.2,0.5,0.5,0.5h8.6c0.3,0,0.5-0.2,0.5-0.5s-0.2-0.5-0.5-0.5H40.7z"/>
	<circle class="st6" cx="51.5" cy="35.2" r="0.5"/>
	<circle class="st5" cx="16.1" cy="49.1" r="0.5"/>
	<path class="st5" d="M14.6,50.4l-5.4,7.5c-0.1,0.2-0.1,0.4-0.1,0.5l1.4,3.3c0.1,0.2,0.3,0.3,0.5,0.3c0.1,0,0.1,0,0.2,0
		c0.3-0.1,0.4-0.4,0.3-0.7l-1.3-3l5.2-7.2c0.2-0.2,0.1-0.6-0.1-0.7C15.1,50.1,14.7,50.2,14.6,50.4z"/>
	<circle class="st5" cx="40.7" cy="49.1" r="0.5"/>
	<path class="st5" d="M42.2,50.4c-0.2-0.2-0.5-0.3-0.7-0.1c-0.2,0.2-0.3,0.5-0.1,0.7l5.2,7.2l-1.3,3c-0.1,0.3,0,0.6,0.3,0.7
		c0.1,0,0.1,0,0.2,0c0.2,0,0.4-0.1,0.5-0.3l1.4-3.3c0.1-0.2,0.1-0.4-0.1-0.5L42.2,50.4z"/>
</g>
</svg>
