<?xml version="1.0" encoding="utf-8"?>
<!-- Generator: Adobe Illustrator 23.0.2, SVG Export Plug-In . SVG Version: 6.00 Build 0)  -->
<svg version="1.1" id="Layer_1" xmlns="http://www.w3.org/2000/svg" xmlns:xlink="http://www.w3.org/1999/xlink" x="0px" y="0px"
	 viewBox="0 0 68.5 71" style="enable-background:new 0 0 68.5 71;" xml:space="preserve">
<style type="text/css">
	.st0{fill:#C6C5C4;}
	.st1{fill:#B12F2B;}
	.st2{fill:none;}
	.st3{fill:#C1C1C1;}
	.st4{fill:#A61E22;}
	.st5{fill:#C2C2C2;}
	.st6{fill:#A81812;}
	.st7{fill:#C79571;}
	.st8{fill:#A7C976;}
	.st9{fill:#FFFFFF;}
	.st10{fill:#EEE3D6;}
	.st11{fill:#CBCBCB;}
	.st12{fill:none;stroke:#000000;stroke-width:0.5;stroke-miterlimit:10;}
	.st13{clip-path:url(#SVGID_2_);fill:#C1C1C1;}
	.st14{clip-path:url(#SVGID_2_);fill:#A81812;}
	.st15{fill:#71D45B;}
	.st16{fill:#D1D1D1;}
</style>
<g>
	<path class="st2" d="M48,16.7c1,3,1.5,6.2,1.5,9.4c0,16.6-13.5,30.1-30.1,30.1c-1.4,0-2.7-0.1-4.1-0.3c4.9,6.6,12.7,10.5,20.9,10.5
		c14.4,0,26.2-11.8,26.2-26.2C62.5,30.2,56.9,21.2,48,16.7z"/>
	<path class="st3" d="M44.7,12.4c-0.3-0.1-0.7,0-0.9,0.3c-0.2,0.3-0.3,0.6-0.1,1c2,3.9,3,8.1,3,12.5c0,15-12.2,27.3-27.3,27.3
		c-2.7,0-5.3-0.4-7.9-1.2c-0.1,0-0.2,0-0.3,0c-0.3,0-0.5,0.1-0.7,0.3c-0.2,0.3-0.3,0.6-0.1,1c5,9.7,14.9,15.7,25.8,15.7
		c16,0,29-13,29-29C65.3,27.5,56.8,16.1,44.7,12.4z M36.3,67.4c-9,0-17.5-4.5-22.5-12l-0.7-1l1.2,0.2c1.7,0.3,3.4,0.5,5.1,0.5
		c16,0,29-13,29-29c0-3.5-0.6-6.9-1.9-10.2l-0.4-1.2l1.2,0.5c9.9,4.4,16.3,14.2,16.3,24.9C63.6,55.2,51.3,67.4,36.3,67.4z"/>
	<path class="st4" d="M14.1,27h12.2L13.4,42.4c-0.2,0.3-0.3,0.6-0.1,0.9c0.1,0.3,0.5,0.5,0.8,0.5h14.1c0.5,0,0.9-0.4,0.9-0.9
		c0-0.5-0.4-0.9-0.9-0.9H16l12.9-15.4c0.2-0.3,0.3-0.6,0.1-0.9c-0.1-0.3-0.5-0.5-0.8-0.5H14.1c-0.5,0-0.9,0.4-0.9,0.9
		S13.6,27,14.1,27z"/>
	<path class="st4" d="M12.2,18.9c0-0.5-0.4-0.9-0.9-0.9H4.6L12,8.1c0.2-0.3,0.2-0.6,0.1-0.9c-0.1-0.3-0.5-0.5-0.8-0.5H2.9
		C2.4,6.7,2,7.1,2,7.6s0.4,0.9,0.9,0.9h6.7l-7.4,9.8C2,18.6,1.9,19,2.1,19.3c0.1,0.3,0.5,0.5,0.8,0.5h8.4
		C11.8,19.7,12.2,19.4,12.2,18.9z"/>
	<path class="st4" d="M19.7,2.9h4L19,9.9c-0.2,0.3-0.2,0.6,0,0.9c0.2,0.3,0.4,0.5,0.8,0.5h5.6c0.5,0,0.9-0.4,0.9-0.9
		s-0.4-0.9-0.9-0.9h-4l4.7-7.1c0.2-0.3,0.2-0.6,0-0.9c-0.2-0.3-0.4-0.5-0.8-0.5h-5.6c-0.5,0-0.9,0.4-0.9,0.9S19.3,2.9,19.7,2.9z"/>
</g>
</svg>
