<?xml version="1.0" encoding="utf-8"?>
<!-- Generator: Adobe Illustrator 23.0.2, SVG Export Plug-In . SVG Version: 6.00 Build 0)  -->
<svg version="1.1" id="Layer_1" xmlns="http://www.w3.org/2000/svg" xmlns:xlink="http://www.w3.org/1999/xlink" x="0px" y="0px"
	 viewBox="0 0 25 25" style="enable-background:new 0 0 25 25;" xml:space="preserve">
<style type="text/css">
	.st0{fill:#C6C5C4;}
	.st1{fill:#B12F2B;}
	.st2{fill:none;}
	.st3{fill:#C1C1C1;}
	.st4{fill:#A61E22;}
	.st5{fill:#C2C2C2;}
	.st6{fill:#A81812;}
	.st7{fill:#C79571;}
	.st8{fill:#A7C976;}
	.st9{fill:#FFFFFF;}
	.st10{fill:#EEE3D6;}
	.st11{fill:#CBCBCB;}
	.st12{fill:none;stroke:#000000;stroke-width:0.5;stroke-miterlimit:10;}
	.st13{clip-path:url(#SVGID_2_);fill:#C1C1C1;}
	.st14{clip-path:url(#SVGID_2_);fill:#A81812;}
	.st15{fill:#71D45B;}
	.st16{fill:#D1D1D1;}
</style>
<g transform="translate(0,-952.36218)">
	<path d="M18.2,952.8c-2,0-3.6,1.6-3.6,3.5c0,0.5,0.1,0.9,0.3,1.3l-7.8,4.8c-0.7-0.7-1.6-1.2-2.7-1.2c-2,0-3.6,1.6-3.6,3.5
		s1.6,3.5,3.6,3.5c1.1,0,2-0.5,2.7-1.2l7.8,4.8c-0.2,0.4-0.3,0.8-0.3,1.3c0,1.9,1.6,3.5,3.6,3.5s3.6-1.6,3.6-3.5s-1.6-3.5-3.6-3.5
		c-1.1,0-2.1,0.5-2.8,1.3l-7.7-4.8c0.2-0.4,0.3-0.9,0.3-1.4c0-0.5-0.1-1-0.3-1.4l7.7-4.8c0.7,0.8,1.7,1.3,2.8,1.3
		c2,0,3.6-1.6,3.6-3.5S20.2,952.8,18.2,952.8z M18.2,953.9c1.4,0,2.5,1.1,2.5,2.4s-1.1,2.4-2.5,2.4s-2.5-1.1-2.5-2.4
		S16.8,953.9,18.2,953.9z M4.4,962.3c1.4,0,2.5,1.1,2.5,2.4s-1.1,2.4-2.5,2.4S2,966.1,2,964.8S3.1,962.3,4.4,962.3z M18.2,970.8
		c1.4,0,2.5,1.1,2.5,2.4s-1.1,2.4-2.5,2.4s-2.5-1.1-2.5-2.4c0-0.4,0.1-0.8,0.3-1.2c0,0,0-0.1,0.1-0.1
		C16.5,971.2,17.3,970.8,18.2,970.8z"/>
</g>
</svg>
