<?xml version="1.0" encoding="utf-8"?>
<!-- Generator: Adobe Illustrator 23.0.2, SVG Export Plug-In . SVG Version: 6.00 Build 0)  -->
<svg version="1.1" id="Layer_1" xmlns="http://www.w3.org/2000/svg" xmlns:xlink="http://www.w3.org/1999/xlink" x="0px" y="0px"
	 viewBox="0 0 25 25" style="enable-background:new 0 0 25 25;" xml:space="preserve">
<style type="text/css">
	.st0{fill:#C6C5C4;}
	.st1{fill:#B12F2B;}
	.st2{fill:none;}
	.st3{fill:#C1C1C1;}
	.st4{fill:#A61E22;}
	.st5{fill:#C2C2C2;}
	.st6{fill:#A81812;}
	.st7{fill:#C79571;}
	.st8{fill:#A7C976;}
	.st9{fill:#FFFFFF;}
	.st10{fill:#EEE3D6;}
	.st11{fill:#CBCBCB;}
	.st12{fill:none;stroke:#000000;stroke-width:0.5;stroke-miterlimit:10;}
	.st13{clip-path:url(#SVGID_2_);fill:#C1C1C1;}
	.st14{clip-path:url(#SVGID_2_);fill:#A81812;}
	.st15{fill:#71D45B;}
	.st16{fill:#D1D1D1;}
</style>
<g>
	<path d="M24.1,12.2c0-6.5-5.3-11.8-11.8-11.8C5.9,0.5,0.6,5.8,0.6,12.2c0,2,0.5,3.9,1.5,5.7l0.1,0.2l-1.6,6l6-1.6l0.2,0.1
		c1.7,0.9,3.7,1.4,5.6,1.4C18.9,24,24.1,18.7,24.1,12.2z M12.4,22.8c-1.9,0-3.7-0.5-5.4-1.5l-0.2-0.1l-4.4,1.2l1.2-4.4l-0.1-0.2
		c-1-1.7-1.5-3.5-1.5-5.5c0-5.8,4.7-10.5,10.5-10.5c5.8,0,10.5,4.7,10.5,10.5C22.9,18.1,18.2,22.8,12.4,22.8z"/>
	<path d="M16.9,14.6l-0.3-0.1c-0.4-0.3-0.9-0.5-1.3-0.4c-0.2,0.1-0.4,0.4-0.5,0.6c-0.1,0.2-0.2,0.3-0.3,0.5
		c-0.3,0.4-0.7,0.5-1.2,0.3c-1.8-0.7-3.2-1.9-4.3-3.6c-0.2-0.3-0.3-0.8,0.1-1.3c0.3-0.4,0.6-0.6,0.6-0.9c0.1-0.3-0.2-0.9-0.3-1.1
		L9.5,8.3C9.3,7.9,9.1,7.4,8.8,7.2c-0.1,0-0.2-0.1-0.3-0.1C8.3,7.2,8,7.3,7.9,7.4C7.3,7.9,7,8.6,7,9.4c0,0.2,0,0.4,0.1,0.7
		c0.1,0.5,0.3,1,0.7,1.6c0.2,0.4,0.5,0.8,0.8,1.1c0.9,1.2,2,2.2,3.2,3c0.7,0.4,1.4,0.7,2,1l0.2,0.1c0.7,0.2,1.3,0.4,2,0.3
		c0.7-0.1,1.5-0.5,1.8-1.3c0.1-0.1,0.1-0.3,0.1-0.5C17.8,15,17.3,14.8,16.9,14.6z"/>
</g>
</svg>
